<svg width="400" height="371" viewBox="0 0 400 371" fill="none" xmlns="http://www.w3.org/2000/svg">
<path d="M40.6552 364.169H31.6852L29.7532 368.47H27.9822L35.3422 352.37H37.0212L44.3812 368.47H42.5872L40.6552 364.169ZM40.0342 362.789L36.1702 354.141L32.3062 362.789H40.0342ZM63.7019 368.608C62.1072 368.608 60.6659 368.255 59.3779 367.55C58.1052 366.844 57.1009 365.871 56.3649 364.629C55.6442 363.371 55.2839 361.968 55.2839 360.42C55.2839 358.871 55.6442 357.476 56.3649 356.234C57.1009 354.976 58.1129 353.995 59.4009 353.29C60.6889 352.584 62.1302 352.232 63.7249 352.232C64.9209 352.232 66.0249 352.431 67.0369 352.83C68.0489 353.228 68.9076 353.811 69.6129 354.578L68.5319 355.659C67.2746 354.386 65.6876 353.75 63.7709 353.75C62.4982 353.75 61.3406 354.041 60.2979 354.624C59.2552 355.206 58.4349 356.004 57.8369 357.016C57.2542 358.028 56.9629 359.162 56.9629 360.42C56.9629 361.677 57.2542 362.812 57.8369 363.824C58.4349 364.836 59.2552 365.633 60.2979 366.216C61.3406 366.798 62.4982 367.09 63.7709 367.09C65.7029 367.09 67.2899 366.446 68.5319 365.158L69.6129 366.239C68.9076 367.005 68.0412 367.596 67.0139 368.01C66.0019 368.408 64.8979 368.608 63.7019 368.608ZM89.7862 368.608C88.1916 368.608 86.7502 368.255 85.4622 367.55C84.1896 366.844 83.1852 365.871 82.4492 364.629C81.7286 363.371 81.3682 361.968 81.3682 360.42C81.3682 358.871 81.7286 357.476 82.4492 356.234C83.1852 354.976 84.1972 353.995 85.4852 353.29C86.7732 352.584 88.2146 352.232 89.8092 352.232C91.0052 352.232 92.1092 352.431 93.1212 352.83C94.1332 353.228 94.9919 353.811 95.6972 354.578L94.6162 355.659C93.3589 354.386 91.7719 353.75 89.8552 353.75C88.5826 353.75 87.4249 354.041 86.3822 354.624C85.3396 355.206 84.5192 356.004 83.9212 357.016C83.3386 358.028 83.0472 359.162 83.0472 360.42C83.0472 361.677 83.3386 362.812 83.9212 363.824C84.5192 364.836 85.3396 365.633 86.3822 366.216C87.4249 366.798 88.5826 367.09 89.8552 367.09C91.7872 367.09 93.3742 366.446 94.6162 365.158L95.6972 366.239C94.9919 367.005 94.1256 367.596 93.0982 368.01C92.0862 368.408 90.9822 368.608 89.7862 368.608ZM120.6 366.998V368.47H109.215V352.37H120.255V353.842H110.917V359.569H119.243V361.018H110.917V366.998H120.6ZM138.93 368.608C137.734 368.608 136.584 368.416 135.48 368.033C134.392 367.649 133.548 367.143 132.95 366.515L133.617 365.204C134.2 365.786 134.974 366.262 135.94 366.63C136.906 366.982 137.903 367.159 138.93 367.159C140.372 367.159 141.453 366.898 142.173 366.377C142.894 365.84 143.254 365.15 143.254 364.307C143.254 363.663 143.055 363.149 142.656 362.766C142.273 362.382 141.798 362.091 141.23 361.892C140.663 361.677 139.873 361.447 138.861 361.202C137.65 360.895 136.684 360.604 135.963 360.328C135.243 360.036 134.622 359.599 134.1 359.017C133.594 358.434 133.341 357.644 133.341 356.648C133.341 355.835 133.556 355.099 133.985 354.44C134.415 353.765 135.074 353.228 135.963 352.83C136.853 352.431 137.957 352.232 139.275 352.232C140.195 352.232 141.092 352.362 141.966 352.623C142.856 352.868 143.622 353.213 144.266 353.658L143.691 355.015C143.017 354.57 142.296 354.24 141.529 354.026C140.763 353.796 140.011 353.681 139.275 353.681C137.865 353.681 136.799 353.957 136.078 354.509C135.373 355.045 135.02 355.743 135.02 356.602C135.02 357.246 135.212 357.767 135.595 358.166C135.994 358.549 136.485 358.848 137.067 359.063C137.665 359.262 138.463 359.484 139.459 359.73C140.64 360.021 141.591 360.312 142.311 360.604C143.047 360.88 143.668 361.309 144.174 361.892C144.68 362.459 144.933 363.233 144.933 364.215C144.933 365.027 144.711 365.771 144.266 366.446C143.837 367.105 143.17 367.634 142.265 368.033C141.361 368.416 140.249 368.608 138.93 368.608ZM162.971 368.608C161.775 368.608 160.625 368.416 159.521 368.033C158.432 367.649 157.589 367.143 156.991 366.515L157.658 365.204C158.24 365.786 159.015 366.262 159.981 366.63C160.947 366.982 161.943 367.159 162.971 367.159C164.412 367.159 165.493 366.898 166.214 366.377C166.934 365.84 167.295 365.15 167.295 364.307C167.295 363.663 167.095 363.149 166.697 362.766C166.313 362.382 165.838 362.091 165.271 361.892C164.703 361.677 163.914 361.447 162.902 361.202C161.69 360.895 160.724 360.604 160.004 360.328C159.283 360.036 158.662 359.599 158.141 359.017C157.635 358.434 157.382 357.644 157.382 356.648C157.382 355.835 157.596 355.099 158.026 354.44C158.455 353.765 159.114 353.228 160.004 352.83C160.893 352.431 161.997 352.232 163.316 352.232C164.236 352.232 165.133 352.362 166.007 352.623C166.896 352.868 167.663 353.213 168.307 353.658L167.732 355.015C167.057 354.57 166.336 354.24 165.57 354.026C164.803 353.796 164.052 353.681 163.316 353.681C161.905 353.681 160.839 353.957 160.119 354.509C159.413 355.045 159.061 355.743 159.061 356.602C159.061 357.246 159.252 357.767 159.636 358.166C160.034 358.549 160.525 358.848 161.108 359.063C161.706 359.262 162.503 359.484 163.5 359.73C164.68 360.021 165.631 360.312 166.352 360.604C167.088 360.88 167.709 361.309 168.215 361.892C168.721 362.459 168.974 363.233 168.974 364.215C168.974 365.027 168.751 365.771 168.307 366.446C167.877 367.105 167.21 367.634 166.306 368.033C165.401 368.416 164.289 368.608 162.971 368.608ZM205.474 368.608C203.879 368.608 202.438 368.255 201.15 367.55C199.877 366.844 198.873 365.871 198.137 364.629C197.416 363.371 197.056 361.968 197.056 360.42C197.056 358.871 197.416 357.476 198.137 356.234C198.873 354.976 199.885 353.995 201.173 353.29C202.461 352.584 203.902 352.232 205.497 352.232C206.693 352.232 207.797 352.431 208.809 352.83C209.821 353.228 210.679 353.811 211.385 354.578L210.304 355.659C209.046 354.386 207.459 353.75 205.543 353.75C204.27 353.75 203.112 354.041 202.07 354.624C201.027 355.206 200.207 356.004 199.609 357.016C199.026 358.028 198.735 359.162 198.735 360.42C198.735 361.677 199.026 362.812 199.609 363.824C200.207 364.836 201.027 365.633 202.07 366.216C203.112 366.798 204.27 367.09 205.543 367.09C207.475 367.09 209.062 366.446 210.304 365.158L211.385 366.239C210.679 367.005 209.813 367.596 208.786 368.01C207.774 368.408 206.67 368.608 205.474 368.608ZM231.604 368.608C230.009 368.608 228.56 368.255 227.257 367.55C225.969 366.829 224.957 365.848 224.221 364.606C223.5 363.364 223.14 361.968 223.14 360.42C223.14 358.871 223.5 357.476 224.221 356.234C224.957 354.992 225.969 354.018 227.257 353.313C228.56 352.592 230.009 352.232 231.604 352.232C233.199 352.232 234.632 352.584 235.905 353.29C237.193 353.995 238.205 354.976 238.941 356.234C239.677 357.476 240.045 358.871 240.045 360.42C240.045 361.968 239.677 363.371 238.941 364.629C238.205 365.871 237.193 366.844 235.905 367.55C234.632 368.255 233.199 368.608 231.604 368.608ZM231.604 367.09C232.877 367.09 234.027 366.806 235.054 366.239C236.081 365.656 236.886 364.859 237.469 363.847C238.052 362.819 238.343 361.677 238.343 360.42C238.343 359.162 238.052 358.028 237.469 357.016C236.886 355.988 236.081 355.191 235.054 354.624C234.027 354.041 232.877 353.75 231.604 353.75C230.331 353.75 229.174 354.041 228.131 354.624C227.104 355.191 226.291 355.988 225.693 357.016C225.11 358.028 224.819 359.162 224.819 360.42C224.819 361.677 225.11 362.819 225.693 363.847C226.291 364.859 227.104 365.656 228.131 366.239C229.174 366.806 230.331 367.09 231.604 367.09ZM267.205 352.37V368.47H265.802L255.452 355.406V368.47H253.75V352.37H255.153L265.526 365.434V352.37H267.205ZM285.478 353.842H279.82V352.37H292.838V353.842H287.18V368.47H285.478V353.842ZM316.441 368.47L312.761 363.295C312.347 363.341 311.917 363.364 311.473 363.364H307.149V368.47H305.447V352.37H311.473C313.527 352.37 315.137 352.86 316.303 353.842C317.468 354.823 318.051 356.172 318.051 357.89C318.051 359.147 317.729 360.213 317.085 361.087C316.456 361.945 315.551 362.566 314.371 362.95L318.304 368.47H316.441ZM311.427 361.915C313.021 361.915 314.24 361.562 315.084 360.857C315.927 360.151 316.349 359.162 316.349 357.89C316.349 356.586 315.927 355.59 315.084 354.9C314.24 354.194 313.021 353.842 311.427 353.842H307.149V361.915H311.427ZM338.996 368.608C337.401 368.608 335.952 368.255 334.649 367.55C333.361 366.829 332.349 365.848 331.613 364.606C330.892 363.364 330.532 361.968 330.532 360.42C330.532 358.871 330.892 357.476 331.613 356.234C332.349 354.992 333.361 354.018 334.649 353.313C335.952 352.592 337.401 352.232 338.996 352.232C340.591 352.232 342.024 352.584 343.297 353.29C344.585 353.995 345.597 354.976 346.333 356.234C347.069 357.476 347.437 358.871 347.437 360.42C347.437 361.968 347.069 363.371 346.333 364.629C345.597 365.871 344.585 366.844 343.297 367.55C342.024 368.255 340.591 368.608 338.996 368.608ZM338.996 367.09C340.269 367.09 341.419 366.806 342.446 366.239C343.473 365.656 344.278 364.859 344.861 363.847C345.444 362.819 345.735 361.677 345.735 360.42C345.735 359.162 345.444 358.028 344.861 357.016C344.278 355.988 343.473 355.191 342.446 354.624C341.419 354.041 340.269 353.75 338.996 353.75C337.723 353.75 336.566 354.041 335.523 354.624C334.496 355.191 333.683 355.988 333.085 357.016C332.502 358.028 332.211 359.162 332.211 360.42C332.211 361.677 332.502 362.819 333.085 363.847C333.683 364.859 334.496 365.656 335.523 366.239C336.566 366.806 337.723 367.09 338.996 367.09ZM361.142 352.37H362.844V366.998H371.86V368.47H361.142V352.37Z" fill="#39E991"/>
<path d="M279.516 140.449C268.68 183.912 224.662 210.361 181.199 199.524C137.736 188.688 111.288 144.67 122.124 101.207C132.961 57.7444 176.979 31.2957 220.441 42.1322C263.904 52.9686 290.353 96.9866 279.516 140.449Z" stroke="#39E991" stroke-width="2"/>
<circle cx="200.117" cy="121.222" r="99" transform="rotate(14 200.117 121.222)" stroke="#39E991" stroke-width="2"/>
<circle cx="211.658" cy="128.668" r="91.1401" stroke="#39E991" stroke-width="10"/>
<path d="M63.8829 310.045L52.8129 294.055H52.1569H40.5949V310.045H27.3109V252.645H52.1569C57.2409 252.645 61.6416 253.492 65.3589 255.187C69.1309 256.882 72.0282 259.287 74.0509 262.403C76.0736 265.519 77.0849 269.209 77.0849 273.473C77.0849 277.737 76.0462 281.427 73.9689 284.543C71.9462 287.604 69.0489 289.955 65.2769 291.595L78.1509 310.045H63.8829ZM63.6369 273.473C63.6369 270.248 62.5982 267.788 60.5209 266.093C58.4436 264.344 55.4096 263.469 51.4189 263.469H40.5949V283.477H51.4189C55.4096 283.477 58.4436 282.602 60.5209 280.853C62.5982 279.104 63.6369 276.644 63.6369 273.473ZM129.922 288.151C129.922 288.315 129.84 289.463 129.676 291.595H96.3017C96.903 294.328 98.3244 296.488 100.566 298.073C102.807 299.658 105.595 300.451 108.93 300.451C111.226 300.451 113.248 300.123 114.998 299.467C116.802 298.756 118.469 297.663 120 296.187L126.806 303.567C122.651 308.323 116.583 310.701 108.602 310.701C103.627 310.701 99.2264 309.744 95.3997 307.831C91.573 305.863 88.621 303.157 86.5437 299.713C84.4664 296.269 83.4277 292.36 83.4277 287.987C83.4277 283.668 84.439 279.787 86.4617 276.343C88.539 272.844 91.3544 270.138 94.9077 268.225C98.5157 266.257 102.534 265.273 106.962 265.273C111.28 265.273 115.189 266.202 118.688 268.061C122.186 269.92 124.92 272.598 126.888 276.097C128.91 279.541 129.922 283.559 129.922 288.151ZM107.044 274.949C104.146 274.949 101.714 275.769 99.7457 277.409C97.7777 279.049 96.575 281.29 96.1377 284.133H117.868C117.43 281.345 116.228 279.131 114.26 277.491C112.292 275.796 109.886 274.949 107.044 274.949ZM183.948 265.929V302.665C183.948 310.756 181.844 316.769 177.634 320.705C173.425 324.641 167.275 326.609 159.184 326.609C154.92 326.609 150.875 326.09 147.048 325.051C143.222 324.012 140.051 322.509 137.536 320.541L142.62 311.357C144.479 312.888 146.83 314.09 149.672 314.965C152.515 315.894 155.358 316.359 158.2 316.359C162.628 316.359 165.881 315.348 167.958 313.325C170.09 311.357 171.156 308.35 171.156 304.305V302.419C167.822 306.082 163.175 307.913 157.216 307.913C153.171 307.913 149.454 307.038 146.064 305.289C142.73 303.485 140.078 300.97 138.11 297.745C136.142 294.52 135.158 290.802 135.158 286.593C135.158 282.384 136.142 278.666 138.11 275.441C140.078 272.216 142.73 269.728 146.064 267.979C149.454 266.175 153.171 265.273 157.216 265.273C163.612 265.273 168.478 267.378 171.812 271.587V265.929H183.948ZM159.758 297.417C163.148 297.417 165.908 296.433 168.04 294.465C170.227 292.442 171.32 289.818 171.32 286.593C171.32 283.368 170.227 280.771 168.04 278.803C165.908 276.78 163.148 275.769 159.758 275.769C156.369 275.769 153.581 276.78 151.394 278.803C149.208 280.771 148.114 283.368 148.114 286.593C148.114 289.818 149.208 292.442 151.394 294.465C153.581 296.433 156.369 297.417 159.758 297.417ZM195.854 265.929H208.646V310.045H195.854V265.929ZM202.25 259.779C199.9 259.779 197.986 259.096 196.51 257.729C195.034 256.362 194.296 254.668 194.296 252.645C194.296 250.622 195.034 248.928 196.51 247.561C197.986 246.194 199.9 245.511 202.25 245.511C204.601 245.511 206.514 246.167 207.99 247.479C209.466 248.791 210.204 250.431 210.204 252.399C210.204 254.531 209.466 256.308 207.99 257.729C206.514 259.096 204.601 259.779 202.25 259.779ZM235.36 310.701C231.698 310.701 228.117 310.264 224.618 309.389C221.12 308.46 218.332 307.312 216.254 305.945L220.518 296.761C222.486 298.018 224.864 299.057 227.652 299.877C230.44 300.642 233.174 301.025 235.852 301.025C241.264 301.025 243.97 299.686 243.97 297.007C243.97 295.75 243.232 294.848 241.756 294.301C240.28 293.754 238.012 293.29 234.95 292.907C231.342 292.36 228.363 291.732 226.012 291.021C223.662 290.31 221.612 289.053 219.862 287.249C218.168 285.445 217.32 282.876 217.32 279.541C217.32 276.753 218.113 274.293 219.698 272.161C221.338 269.974 223.689 268.28 226.75 267.077C229.866 265.874 233.529 265.273 237.738 265.273C240.854 265.273 243.943 265.628 247.004 266.339C250.12 266.995 252.69 267.924 254.712 269.127L250.448 278.229C246.567 276.042 242.33 274.949 237.738 274.949C235.005 274.949 232.955 275.332 231.588 276.097C230.222 276.862 229.538 277.846 229.538 279.049C229.538 280.416 230.276 281.372 231.752 281.919C233.228 282.466 235.579 282.985 238.804 283.477C242.412 284.078 245.364 284.734 247.66 285.445C249.956 286.101 251.952 287.331 253.646 289.135C255.341 290.939 256.188 293.454 256.188 296.679C256.188 299.412 255.368 301.845 253.728 303.977C252.088 306.109 249.683 307.776 246.512 308.979C243.396 310.127 239.679 310.701 235.36 310.701ZM292.535 307.913C291.277 308.842 289.719 309.553 287.861 310.045C286.057 310.482 284.143 310.701 282.121 310.701C276.873 310.701 272.8 309.362 269.903 306.683C267.06 304.004 265.639 300.068 265.639 294.875V276.753H258.833V266.913H265.639V256.171H278.431V266.913H289.419V276.753H278.431V294.711C278.431 296.57 278.895 298.018 279.825 299.057C280.809 300.041 282.175 300.533 283.925 300.533C285.947 300.533 287.669 299.986 289.091 298.893L292.535 307.913ZM341.568 288.151C341.568 288.315 341.486 289.463 341.322 291.595H307.948C308.55 294.328 309.971 296.488 312.212 298.073C314.454 299.658 317.242 300.451 320.576 300.451C322.872 300.451 324.895 300.123 326.644 299.467C328.448 298.756 330.116 297.663 331.646 296.187L338.452 303.567C334.298 308.323 328.23 310.701 320.248 310.701C315.274 310.701 310.873 309.744 307.046 307.831C303.22 305.863 300.268 303.157 298.19 299.713C296.113 296.269 295.074 292.36 295.074 287.987C295.074 283.668 296.086 279.787 298.108 276.343C300.186 272.844 303.001 270.138 306.554 268.225C310.162 266.257 314.18 265.273 318.608 265.273C322.927 265.273 326.836 266.202 330.334 268.061C333.833 269.92 336.566 272.598 338.534 276.097C340.557 279.541 341.568 283.559 341.568 288.151ZM318.69 274.949C315.793 274.949 313.36 275.769 311.392 277.409C309.424 279.049 308.222 281.29 307.784 284.133H329.514C329.077 281.345 327.874 279.131 325.906 277.491C323.938 275.796 321.533 274.949 318.69 274.949ZM362.303 271.751C363.833 269.619 365.883 268.006 368.453 266.913C371.077 265.82 374.083 265.273 377.473 265.273V277.081C376.051 276.972 375.095 276.917 374.603 276.917C370.94 276.917 368.07 277.956 365.993 280.033C363.915 282.056 362.877 285.117 362.877 289.217V310.045H350.085V265.929H362.303V271.751Z" fill="white"/>
</svg>
